HIERARCHY
ROOT Hips
{
	OFFSET -109.992104 92.699142 431.869385
	CHANNELS 6 Xposition Yposition Zposition Zrotation Yrotation Xrotation 
	JOINT LeftUpLeg
	{
		OFFSET 0.103458 1.857831 10.548500
		CHANNELS 3 Zrotation Yrotation Xrotation
		JOINT LeftLeg
		{
			OFFSET 43.500000 -0.000027 -0.000013
			CHANNELS 3 Zrotation Yrotation Xrotation
			JOINT LeftFoot
			{
				OFFSET 42.372196 0.000031 0.000011
				CHANNELS 3 Zrotation Yrotation Xrotation
				JOINT LeftToe
				{
					OFFSET 17.299994 -0.000003 -0.000004
					CHANNELS 3 Zrotation Yrotation Xrotation
					End Site
					{
						OFFSET 0.000000 0.000000 0.000000
					}
				}
			}
		}
	}
	JOINT RightUpLeg
	{
		OFFSET 0.103455 1.857826 -10.548502
		CHANNELS 3 Zrotation Yrotation Xrotation
		JOINT RightLeg
		{
			OFFSET 43.500038 -0.000023 0.000010
			CHANNELS 3 Zrotation Yrotation Xrotation
			JOINT RightFoot
			{
				OFFSET 42.372261 0.000004 0.000006
				CHANNELS 3 Zrotation Yrotation Xrotation
				JOINT RightToe
				{
					OFFSET 17.299988 -0.000008 0.000010
					CHANNELS 3 Zrotation Yrotation Xrotation
					End Site
					{
						OFFSET 0.000000 0.000000 0.000000
					}
				}
			}
		}
	}
	JOINT Spine
	{
		OFFSET 6.901968 -2.603722 -0.000004
		CHANNELS 3 Zrotation Yrotation Xrotation
		JOINT Spine1
		{
			OFFSET 12.588099 -0.000002 0.000005
			CHANNELS 3 Zrotation Yrotation Xrotation
			JOINT Spine2
			{
				OFFSET 12.343202 -0.000017 -0.000005
				CHANNELS 3 Zrotation Yrotation Xrotation
				JOINT Neck
				{
					OFFSET 25.832903 0.000008 0.000008
					CHANNELS 3 Zrotation Yrotation Xrotation
					JOINT Head
					{
						OFFSET 11.766607 0.000004 -0.000001
						CHANNELS 3 Zrotation Yrotation Xrotation
						End Site
						{
							OFFSET 0.000000 0.000000 0.000000
						}
					}
				}
				JOINT LeftShoulder
				{
					OFFSET 19.745907 -1.480366 6.000107
					CHANNELS 3 Zrotation Yrotation Xrotation
					JOINT LeftArm
					{
						OFFSET 11.284126 -0.000031 -0.000025
						CHANNELS 3 Zrotation Yrotation Xrotation
						JOINT LeftForeArm
						{
							OFFSET 33.000050 0.000011 0.000029
							CHANNELS 3 Zrotation Yrotation Xrotation
							JOINT LeftHand
							{
								OFFSET 25.200008 0.000009 0.000011
								CHANNELS 3 Zrotation Yrotation Xrotation
								End Site
								{
									OFFSET 0.000000 0.000000 0.000000
								}
							}
						}
					}
				}
				JOINT RightShoulder
				{
					OFFSET 19.746094 -1.480364 -6.000070
					CHANNELS 3 Zrotation Yrotation Xrotation
					JOINT RightArm
					{
						OFFSET 11.284145 -0.000017 -0.000020
						CHANNELS 3 Zrotation Yrotation Xrotation
						JOINT RightForeArm
						{
							OFFSET 33.000088 0.000019 0.000022
							CHANNELS 3 Zrotation Yrotation Xrotation
							JOINT RightHand
							{
								OFFSET 25.199780 0.000137 0.000414
								CHANNELS 3 Zrotation Yrotation Xrotation
								End Site
								{
									OFFSET 0.000000 0.000000 0.000000
								}
							}
						}
					}
				}
			}
		}
	}
}
MOTION
Frames: 5
Frame Time: 0.033333
-109.992104 92.699142 431.869385 88.246529 4.107031 87.215690 -177.486072 -3.345794 170.102678 -16.898983 -2.140638 -2.652960 86.376095 1.563024 -1.863926 21.454550 0.003088 -0.000002 -179.997451 -0.948705 179.656515 -18.200002 2.667992 10.309478 83.670227 -6.636144 3.333214 21.454557 -0.003109 -0.000018 7.475513 0.545459 -0.319417 4.935424 1.103860 -0.615484 4.617276 1.100266 -0.622136 24.448531 -4.055109 -1.024770 -2.643921 1.585996 -1.679871 -88.158986 -82.765842 -94.241762 -2.840208 4.173810 -8.852647 -12.443663 -14.150300 0.932438 15.285402 -4.475405 -14.069171 62.385602 85.269892 -116.216748 5.249517 -12.431250 13.587482 -20.631657 21.791300 -1.532848 13.388686 0.051528 -4.637369 
-109.981796 92.709343 431.876587 88.331421 4.128554 87.200957 -177.292409 -3.209388 169.910313 -16.552333 -2.076744 -2.579152 86.238481 1.515504 -1.831892 21.454555 0.003084 -0.000003 -179.788952 -0.863400 179.656528 -17.957158 2.612594 10.301384 83.628406 -6.616673 3.405549 21.454560 -0.003110 -0.000015 7.472778 0.525880 -0.315246 4.930116 1.064567 -0.607977 4.611964 1.061001 -0.614389 24.390599 -4.055294 -1.013401 -2.687824 1.585992 -1.672515 -88.132916 -82.765842 -94.267874 -2.855872 4.173432 -8.789625 -12.468690 -14.115371 0.932419 15.260173 -4.478721 -14.091568 62.351656 85.285943 -116.249396 5.218572 -12.394039 13.547966 -20.578108 21.751383 -1.529655 13.351618 0.082167 -4.595122 
-109.953300 92.707237 431.892792 88.357964 4.184931 87.184646 -177.134946 -3.015896 170.184299 -16.321398 -1.925953 -2.815505 86.238761 1.657090 -1.936179 21.454553 0.003095 0.000001 -179.584702 -0.849801 179.665626 -17.644105 2.479272 10.295302 83.458956 -6.633857 3.282929 21.454558 -0.003104 -0.000016 7.460465 0.510511 -0.301223 4.905656 1.033173 -0.580731 4.587525 1.029792 -0.586966 24.217365 -4.038908 -0.975463 -2.868186 1.586000 -1.640569 -88.113354 -82.765842 -94.286902 -2.906659 4.132011 -8.525504 -12.574720 -14.025922 0.932426 15.273681 -4.721525 -14.019068 62.679143 85.284617 -115.924402 5.190543 -12.247061 13.387436 -20.445183 21.617759 -1.519551 13.264390 0.195089 -4.481771 
-109.940598 92.694191 431.890594 88.282374 4.219135 87.190350 -177.126927 -3.059496 169.972563 -16.386479 -1.804953 -2.704349 86.361124 1.565912 -2.007900 21.454553 0.003080 0.000000 -179.591997 -0.905395 179.620943 -17.724056 2.510947 10.316179 83.432755 -6.715360 2.935181 21.454557 -0.003113 -0.000018 7.443031 0.515584 -0.291947 4.870870 1.042850 -0.562126 4.552728 1.039571 -0.568420 24.111572 -4.012130 -0.931026 -3.080608 1.577928 -1.597372 -88.146289 -82.765896 -94.253243 -2.937640 4.066220 -8.294325 -12.598522 -14.021149 0.932428 15.237351 -4.777180 -13.861212 63.386006 85.226807 -115.226125 5.240677 -12.128868 13.235847 -20.421308 21.528449 -1.513642 13.276439 0.282216 -4.429031 
-109.930801 92.686920 431.882904 88.194585 4.248481 87.204133 -177.084949 -3.140905 170.005471 -16.368453 -1.819281 -2.723316 86.457388 1.580262 -2.008666 21.454548 0.003089 -0.000001 -179.582325 -0.942317 179.564061 -17.763471 2.602107 10.305696 83.399062 -6.722642 2.861701 21.454557 -0.003112 -0.000019 7.427489 0.526609 -0.285433 4.839748 1.064504 -0.548793 4.521619 1.061323 -0.555212 23.998307 -4.008865 -0.869041 -3.317729 1.607309 -1.546686 -88.234317 -82.752345 -94.166022 -2.970747 3.998350 -8.187135 -12.547841 -14.043968 0.932437 15.062976 -4.710968 -13.657689 63.710065 85.161913 -114.908521 5.289292 -12.081730 13.141639 -20.482559 21.506550 -1.513067 13.348870 0.330803 -4.428137 
